<?xml version="1.0" standalone="no"?>
<!DOCTYPE svg PUBLIC "-//W3C//DTD SVG 20010904//EN"
 "http://www.w3.org/TR/2001/REC-SVG-20010904/DTD/svg10.dtd">
<svg version="1.0" xmlns="http://www.w3.org/2000/svg"
 width="700.000000pt" height="700.000000pt" viewBox="0 0 700.000000 700.000000"
 preserveAspectRatio="xMidYMid meet">
<metadata>
Created by potrace 1.14, written by Peter Selinger 2001-2017
</metadata>
<g transform="translate(0.000000,700.000000) scale(0.100000,-0.100000)"
fill="#000000" stroke="none">
<path d="M0 3500 l0 -3500 3500 0 3500 0 0 3500 0 3500 -3500 0 -3500 0 0
-3500z m3510 3337 c39 -25 128 -72 210 -112 30 -15 64 -35 75 -44 11 -10 36
-24 55 -31 19 -7 50 -24 68 -37 17 -13 47 -29 65 -35 17 -6 46 -21 62 -33 17
-13 50 -32 75 -44 25 -12 77 -40 115 -61 39 -21 97 -52 130 -68 33 -16 66 -36
73 -45 7 -9 26 -19 42 -22 16 -3 48 -20 71 -37 23 -16 56 -35 73 -40 17 -6 40
-19 51 -29 11 -9 45 -29 75 -44 30 -14 87 -44 125 -65 39 -21 97 -53 130 -70
139 -73 188 -100 204 -113 9 -7 32 -20 51 -27 19 -8 47 -24 62 -36 15 -12 44
-28 65 -34 21 -7 47 -21 58 -30 11 -10 45 -30 75 -45 30 -14 87 -44 125 -65
118 -64 178 -97 235 -126 31 -16 68 -39 84 -51 15 -12 44 -27 64 -34 20 -6 49
-22 64 -35 15 -12 44 -28 65 -35 21 -6 51 -22 66 -35 16 -13 39 -24 53 -24
l24 0 0 -505 0 -505 -358 0 c-301 0 -361 2 -379 15 -20 14 -21 23 -25 258 -3
273 -6 285 -75 307 -21 7 -47 21 -58 30 -11 10 -45 30 -75 45 -30 14 -86 44
-125 65 -116 63 -177 96 -235 126 -31 16 -69 38 -85 50 -17 11 -46 27 -65 34
-19 8 -47 24 -62 36 -15 12 -44 28 -65 34 -21 7 -47 21 -58 30 -11 10 -45 30
-75 45 -30 14 -86 44 -125 65 -38 22 -90 49 -115 61 -25 12 -58 32 -75 44 -16
13 -46 28 -66 34 -20 7 -44 20 -54 31 -10 11 -38 27 -64 36 -25 10 -55 25 -66
35 -11 9 -45 29 -75 44 -30 14 -86 44 -125 65 -115 63 -177 96 -235 126 -30
16 -66 37 -80 47 -27 19 -95 23 -106 6 -3 -6 -34 -24 -68 -41 -33 -16 -92 -47
-131 -68 -38 -21 -97 -53 -130 -70 -33 -17 -91 -49 -130 -70 -38 -21 -95 -51
-125 -65 -30 -15 -64 -35 -75 -45 -11 -9 -37 -23 -58 -30 -21 -6 -50 -22 -65
-34 -15 -13 -48 -31 -74 -41 -26 -9 -55 -26 -64 -36 -9 -10 -33 -23 -53 -30
-20 -6 -51 -22 -69 -36 -17 -13 -47 -29 -65 -35 -17 -6 -46 -22 -63 -35 -17
-12 -46 -28 -65 -35 -19 -6 -46 -21 -61 -34 -15 -12 -44 -28 -65 -35 -21 -6
-50 -22 -65 -35 -15 -12 -44 -28 -65 -35 -21 -6 -50 -22 -65 -35 -15 -12 -44
-28 -65 -34 -21 -7 -46 -20 -56 -29 -10 -9 -46 -30 -80 -48 -271 -138 -289
-150 -303 -198 -9 -30 -13 -336 -13 -1232 -1 -1185 -1 -1193 20 -1232 14 -28
32 -44 60 -55 21 -9 58 -29 80 -46 23 -16 47 -30 53 -30 6 0 33 -16 60 -35 27
-19 55 -35 62 -35 7 0 26 -11 42 -25 16 -13 50 -33 75 -44 24 -11 48 -25 52
-31 4 -7 31 -23 59 -35 28 -13 66 -35 85 -49 19 -14 40 -26 47 -26 7 0 26 -11
42 -25 16 -13 50 -33 75 -44 24 -11 48 -25 52 -31 4 -7 31 -23 59 -35 28 -13
66 -35 85 -49 19 -14 40 -26 45 -26 6 0 33 -16 60 -35 27 -19 55 -35 62 -35 7
0 26 -11 42 -25 16 -13 51 -34 77 -45 26 -11 61 -32 77 -45 16 -14 35 -25 42
-25 7 0 35 -16 62 -35 27 -19 54 -35 61 -35 6 0 25 -11 41 -25 16 -13 50 -33
75 -44 24 -11 48 -25 52 -31 4 -7 33 -23 63 -37 31 -13 69 -35 85 -49 16 -13
34 -24 40 -24 7 0 34 -16 61 -35 27 -19 55 -35 61 -35 7 0 29 -11 48 -25 l37
-24 72 30 c40 17 82 39 93 49 11 10 40 28 65 38 25 11 60 32 79 46 19 14 40
26 46 26 6 0 34 16 61 35 27 19 54 35 60 35 6 0 29 12 50 28 21 15 58 36 82
46 23 11 48 26 54 34 7 8 35 25 63 38 27 14 79 42 115 64 36 22 88 50 115 64
28 13 56 31 63 39 7 8 35 24 62 36 27 12 52 26 56 32 3 6 27 20 52 31 25 12
64 34 85 49 22 16 45 29 51 29 6 0 33 16 60 35 27 19 55 35 61 35 6 0 27 12
46 26 19 14 57 36 85 49 28 12 55 28 59 34 4 7 30 23 58 37 29 13 81 42 117
64 36 22 88 51 116 65 28 14 58 33 68 43 9 11 35 25 58 33 74 24 78 40 78 298
0 195 2 227 17 243 15 17 40 18 385 18 l368 0 0 -485 c0 -430 -2 -485 -15
-485 -17 0 -51 -18 -155 -80 -36 -22 -88 -51 -117 -64 -28 -14 -54 -30 -58
-37 -4 -6 -31 -22 -59 -34 -28 -13 -66 -35 -85 -49 -19 -14 -40 -26 -46 -26
-6 0 -34 -16 -61 -35 -27 -19 -54 -35 -60 -35 -5 0 -26 -12 -45 -26 -19 -14
-57 -36 -85 -49 -28 -12 -55 -28 -59 -34 -4 -7 -31 -23 -60 -35 -29 -13 -56
-29 -60 -35 -4 -7 -30 -23 -58 -37 -91 -44 -160 -84 -181 -102 -12 -11 -37
-25 -56 -32 -19 -7 -44 -21 -55 -31 -11 -10 -37 -25 -58 -34 -21 -9 -57 -29
-79 -45 -23 -17 -47 -30 -54 -30 -7 0 -26 -11 -42 -25 -17 -14 -47 -32 -68
-41 -21 -9 -52 -26 -68 -39 -17 -13 -48 -30 -69 -39 -22 -9 -52 -27 -69 -41
-16 -14 -35 -25 -43 -25 -7 0 -35 -15 -62 -34 -26 -18 -59 -36 -71 -40 -12 -4
-34 -17 -50 -30 -15 -12 -43 -28 -62 -36 -19 -7 -45 -22 -57 -33 -12 -10 -43
-30 -70 -43 -26 -14 -77 -42 -113 -64 -36 -22 -88 -51 -117 -64 -28 -14 -54
-30 -58 -37 -4 -6 -28 -20 -54 -31 -25 -11 -60 -31 -77 -43 -16 -13 -47 -30
-68 -39 -21 -9 -50 -26 -66 -39 -53 -45 -154 -43 -207 5 -12 11 -43 31 -70 44
-26 14 -77 42 -113 64 -36 22 -88 51 -117 65 -28 14 -56 32 -63 40 -7 8 -35
26 -63 40 -29 14 -81 43 -117 65 -36 22 -84 49 -107 60 -23 11 -55 31 -70 43
-15 13 -44 29 -63 37 -19 7 -44 21 -55 31 -11 9 -42 29 -70 43 -27 15 -79 45
-115 66 -36 22 -89 51 -117 65 -29 15 -55 31 -59 36 -3 5 -31 23 -62 40 -31
17 -86 48 -122 69 -36 22 -85 49 -110 61 -25 12 -56 31 -70 44 -14 12 -41 28
-60 35 -19 7 -43 20 -54 29 -22 19 -112 71 -183 105 -28 14 -54 30 -58 37 -4
6 -31 22 -59 34 -29 13 -57 30 -64 38 -7 8 -34 24 -61 36 -26 11 -53 27 -60
35 -6 7 -26 20 -44 27 -18 7 -54 28 -81 46 -26 18 -54 33 -61 33 -8 0 -27 11
-43 25 -17 14 -50 34 -75 45 -24 11 -50 26 -56 34 -6 8 -26 20 -44 27 -18 7
-53 27 -78 43 -26 17 -60 38 -76 47 -23 12 -32 26 -36 55 -4 22 -7 779 -7
1684 l0 1645 30 37 c17 20 58 51 93 68 34 18 94 49 132 70 39 21 97 53 130 70
33 17 92 49 130 70 39 21 97 53 130 70 33 17 92 49 130 70 39 21 97 53 130 70
33 17 92 49 130 70 39 22 90 49 115 61 25 12 59 31 75 44 17 12 45 27 62 33
18 6 48 22 65 35 18 13 49 30 68 37 19 8 49 24 66 37 17 13 46 28 65 35 19 6
48 21 64 33 17 13 50 32 75 44 25 12 77 39 115 61 39 21 97 53 130 70 33 17
92 49 130 70 39 21 97 53 130 70 33 17 92 49 130 70 39 21 97 53 130 70 33 17
92 49 130 70 39 21 90 48 114 60 24 12 64 35 89 51 59 37 130 40 182 6z"/>
</g>
</svg>
